DataType=double
version=3
OpenSimVersion=4.4-2022-10-11-798caa840
endheader
time	ground_force_r_vx	ground_force_r_vy	ground_force_r_vz	ground_force_r_px	ground_force_r_py	ground_force_r_pz	ground_force_l_vx	ground_force_l_vy	ground_force_l_vz	ground_force_l_px	ground_force_l_py	ground_force_l_pz	ground_torque_r_x	ground_torque_r_y	ground_torque_r_z	ground_torque_l_x	ground_torque_l_y	ground_torque_l_z
2.72	-0.3220251010961457	0.2587817977766609	0.04851132035311238	1.196312023284019	0	-0.4307187412283302	88.92198413771717	738.1873353174285	36.04309875767413	0.7408576859519642	0	-0.5629356184202797	0	-1.709363067758929e-10	0	0	-0.5653694062894594	0
2.725	-0.5899009024935402	0.5339199091834437	0.1092977537417118	1.198838592839801	0	-0.4313585937383689	94.81063158283747	738.6880884971242	37.84005997239431	0.742101974821623	0	-0.5616295782265835	0	-1.031973173581946e-09	0	0	-0.9792788323058197	0
2.73	-1.161410377547371	1.17001141849334	0.2615196652148497	1.200660095167137	0	-0.4318725917940144	98.53814115537952	737.158900959347	36.71967344407302	0.7434061827425339	0	-0.5601798304122478	0	-6.531372831464211e-09	0	0	-1.360774034279878	0
2.735	-2.528342069997674	2.76054043757148	0.6287366018618225	1.201900373996701	0	-0.4321523532329613	101.3791201906205	732.4178132793345	34.40491351201708	0.7447686463092106	0	-0.5586427723981076	0	-4.174073764406927e-08	0	0	-1.63531933949556	0
2.74	-4.383359790671447	6.485856165999091	1.343824290490838	1.201962875009598	0	-0.4322098707583549	104.7072385462606	724.76646655173	31.90190088001125	0.7461489194314049	0	-0.5570781080163367	0	-5.022254745412624e-07	0	0	-1.745836700898657	0
2.745	-2.476721130678164	13.96080819211887	2.284072196963725	1.201262408603935	0	-0.4321669455715327	108.2272478706556	715.1290323975104	29.12014293943629	0.7475283167792827	0	-0.5555142414414161	0	-4.950345965593073e-06	0	0	-1.702508314470407	0
2.75	2.792506860909692	25.75994170399358	4.406042238153796	1.201421345781944	0	-0.432254860163036	111.5185878000551	703.6551696419217	25.74654031276777	0.7489351688038663	0	-0.5539417948904813	0	-2.697094622750029e-05	0	0	-1.571100716907537	0
2.755	7.685479521869708	41.31197553593638	7.764699908403847	1.20200459225587	0	-0.4323395091180119	114.6453541474215	690.3027107955229	22.36309874933584	0.750415792671417	0	-0.5522956698040289	0	-0.0001374064533337105	0	0	-1.397249772921196	0
2.76	9.99375676483823	71.01907175935754	12.66082323711829	1.202612417041778	0	-0.4324039587664409	117.4951241486037	675.0174538399185	18.9912203761064	0.7520041298370858	0	-0.5505244990805453	0	-0.0006417578997854889	0	0	-1.199932645292586	0
2.765	6.730636877938711	124.2957771204394	16.60383135598125	1.203145254146659	0	-0.4324996969040607	119.8010213451846	657.5880504600683	15.48559112356002	0.7537017765525909	0	-0.5486816859241991	0	-0.002811081930182979	0	0	-0.9840292609104537	0
2.77	-0.3836638862266888	185.6077287350757	17.94521499763452	1.203715126365726	0	-0.4325846306469516	121.4197498886785	637.8834099877278	12.29740523650593	0.7555104269466515	0	-0.5468194554344618	0	-0.01119846181110162	0	0	-0.7416262624267524	0
2.775	-4.402635417157779	238.7452102718671	19.9814796862869	1.204484924634176	0	-0.432557708488964	122.3943087878208	615.8310783158964	9.583731841093933	0.7574759729774201	0	-0.5448430530671685	0	-0.03716940102622246	0	0	-0.4890211666232567	0
2.78	-9.777609830015205	278.5618268123569	20.33424431445128	1.205527427623518	0	-0.4323798813789682	122.6045508951508	591.6635128236655	6.885172146330157	0.7596203531309872	0	-0.5427035649248796	0	-0.09732135122399654	0	0	-0.2765140797268302	0
2.785	-17.21272497192092	307.2035741675193	19.68867394738021	1.206996749860382	0	-0.4319656168529769	121.9216939076152	565.5206714374651	4.19232548320541	0.761919259489621	0	-0.5404937096544602	0	-0.1967141812998747	0	0	-0.1364987195444263	0
2.79	-24.60570700609396	329.1810463778344	19.17023623711933	1.208956015387315	0	-0.4312904372113048	120.4020832050942	537.4024169324528	1.752931750901252	0.7643497281695728	0	-0.5383023010057287	0	-0.3152645821623068	0	0	-0.04227786912802234	0
2.795	-32.03257718903664	348.0197832291415	17.98646268559704	1.21121148138307	0	-0.4304931779398474	117.9166236216928	507.3533501343884	-0.8399500919971183	0.7668551146417334	0	-0.5362952440188949	0	-0.4210432311898522	0	0	0.03890550709652174	0
2.8	-39.90215257355391	366.2016184515665	16.18006627411564	1.213753591377479	0	-0.4296774504946579	114.484403848221	476.1949332449108	-3.35831645004404	0.7693459919612898	0	-0.5346981389321406	0	-0.510561328973985	0	0	0.1137171814197382	0
2.805	-47.34531066515882	388.4688103110657	13.63912396256468	1.217534710631848	0	-0.4286111867565629	109.7296366707098	444.5578926209683	-5.549751044422977	0.7717988348787479	0	-0.53360203974823	0	-0.6134135954822071	0	0	0.188776826655574	0
2.81	-54.37290630198085	418.5000123503427	10.03869914077054	1.223680452941088	0	-0.4271285275216364	102.6965652114033	411.7750674928355	-7.544011398646034	0.7743470884376469	0	-0.5328614329839167	0	-0.6574252291768889	0	0	0.2611361007861843	0
2.815	-62.06331693917448	453.7799703310808	5.328629540352201	1.231853506605458	0	-0.4257089799907986	94.63913966744938	375.3388773346102	-9.233617477303218	0.7772027528221671	0	-0.5323847242744105	0	-0.4113082977508018	0	0	0.3248252675450862	0
2.82	-69.25857633911046	488.2223745907483	0.3307401757147993	1.240674063124441	0	-0.4248419854875781	87.03461594931109	332.2131981524967	-10.50852419812948	0.7806441034925138	0	-0.5321800637314612	0	0.2078083165653652	0	0	0.3739496355436991	0
2.825	-75.51675427999825	517.1020692439796	-3.978003746926316	1.248927215397409	0	-0.4245184460344858	78.04348015774409	283.1212024246543	-11.63306568398904	0.7851580848392412	0	-0.53194599266661	0	0.9033556096617392	0	0	0.3651609913717362	0
2.83	-81.1929585178714	541.5437729988286	-7.517635133225911	1.25641273620894	0	-0.4246524212469008	66.49282970445319	233.5302812229764	-12.65241175543821	0.7909419094692237	0	-0.5317216866435093	0	1.40523665164655	0	0	0.2847145464910579	0
2.835	-86.32166648255965	565.3383056220662	-9.821779062124168	1.263370114040255	0	-0.4252039824353137	54.34620926090387	187.8268558955839	-12.90587630052439	0.7979828437640919	0	-0.531375313058205	0	1.577158381494389	0	0	0.1255768327318005	0
2.84	-90.30786879185568	588.6179142480923	-11.25802521003583	1.269623327516476	0	-0.4258964062499386	43.57873800284353	154.2668224984319	-13.11238389363952	0.8029737459437352	0	-0.5311518890363868	0	1.409660520486902	0	0	-0.003209762842978137	0
2.845	-93.37301290344384	610.3494775898172	-12.60994083802187	1.275053833744346	0	-0.4264886257793328	34.59849907781206	128.554806558017	-12.89636070075943	0.803845945653123	0	-0.5311128448406508	0	1.026244511033049	0	0	-2.004536455046946e-06	0
2.85	-95.70352500854567	629.2454129351058	-14.28310337649084	1.279590010822008	0	-0.426909983944657	28.37028168486211	100.5133851686642	-11.31380824055299	0.8050109891724982	0	-0.5309934100354212	0	0.4763081119934434	0	0	-9.695959590771963e-10	0
2.855	-97.02025866299353	645.5101671062289	-16.53415122566342	1.283156403877675	0	-0.4271395463103806	20.9297812729828	74.23715435756245	-10.05209412566695	0.8062523527666913	0	-0.5308632462552008	0	-0.09572752115894545	0	0	-1.289635065404582e-12	0
2.86	-97.60595662248623	662.4123750208433	-19.22683334061066	1.285680339353637	0	-0.4271363713784764	10.17583776095958	48.08969272612839	-9.365253574104862	0.8074954036181681	0	-0.5307438838183397	0	-0.4685085167886562	0	0	-5.329070518200751e-15	0
2.865	-97.62587300256723	681.2211647302006	-21.93427309724544	1.287265259906953	0	-0.4269034236160976	0.6033498077511956	24.24859485967397	-6.522463747035687	0.808823678109639	0	-0.5305054632126313	0	-0.6025823335612976	0	0	-8.881784197001252e-16	0
2.87	-97.16046985688799	698.4894467434867	-23.9215744626413	1.288303310647743	0	-0.4265443416624278	-2.556007093491687	4.880440710460419	-1.366076301154002	0.8104187346986322	0	-0.5300368531158949	0	-0.6934417281311198	0	0	-2.220446049250313e-16	0
2.875	-96.22144397553639	712.3478430087421	-25.07284665386383	1.289064918529717	0	-0.4261305536982529	0.004231343979592262	-0.004294994563146496	0.0003524797273949526	0.8139127488770446	0	-0.5295112415932646	0	-0.8816172991999949	0	0	-3.794707603699266e-19	0
2.88	-94.87209725847465	723.620841499263	-25.43535088557444	1.289590370821861	0	-0.4256582894692826	7.531332691887738e-06	-6.735804856852246e-06	-1.696603883843151e-07	0.8193894038820075	0	-0.5294665213435826	0	-1.093922120849484	0	0	5.029258124322408e-22	0
2.885	-93.14039396052554	732.9719569903472	-25.45095284272745	1.289992986610916	0	-0.4251450241934408	1.813996892339612e-06	-1.499672626512271e-06	-1.025299255043627e-07	0.8261516923428459	0	-0.5297184801957769	0	-1.280114088642698	0	0	-3.970466940254533e-23	0
2.89	-91.01947785298549	740.5841682457403	-25.64403857595783	1.290301285584463	0	-0.4245965078684285	2.161094941431255e-07	-1.644331050836398e-07	-1.341687332581981e-08	0.8340986114402141	0	-0.5300894478645259	0	-1.45836298289295	0	0	-1.654361225106055e-24	0
2.895	-88.57491259829347	746.4998780327903	-26.37635356920528	1.290517759578819	0	-0.4240152207919325	1.273317153580676e-08	-8.851960084978775e-09	-7.828301326947009e-10	0.8434829232812318	0	-0.5305379624126401	0	-1.584789854393755	0	0	0	0
2.9	-85.9287185164882	750.4657187001205	-27.71155123880857	1.290670534112491	0	-0.4234140876811676	3.468390471311937e-09	-2.224889189334202e-09	-2.160590588509921e-10	0.8542737676320753	0	-0.5310860568883133	0	-1.651912139975089	0	0	-7.237830359838992e-25	0
2.905	-83.11076756207825	752.4477588562572	-29.35240066822428	1.290803243519275	0	-0.422810381523656	5.441267491263032e-09	-3.254643476972986e-09	-3.356936149931821e-10	0.8663018441516951	0	-0.5316967460401095	0	-1.663002250023958	0	0	-5.37667398159468e-24	0
2.91	-80.18541112771582	752.6998246085519	-31.00383144670941	1.290952351677885	0	-0.4222249274928316	1.553522881901601e-08	-8.68912305211675e-09	-9.174748257570118e-10	0.8795453605201091	0	-0.5323309711404496	0	-1.620413386927808	0	0	-5.862642591469584e-23	0
2.915	-77.21159153405675	751.3522395628042	-32.31913499059736	1.291127169414277	0	-0.4216623653622706	9.25899084581484e-08	-4.862066641823901e-08	-5.192889245292382e-09	0.8939495661892483	0	-0.5329815460359043	0	-1.569522679792392	0	0	-1.252351447405284e-21	0
